<svg width="20" height="25" viewBox="0 0 20 25" fill="none" xmlns="http://www.w3.org/2000/svg">
<g id="ph:caret-up-down">
<path id="Vector" d="M14.192 16.6346C14.2502 16.7072 14.2963 16.7934 14.3277 16.8882C14.3592 16.9831 14.3753 17.0847 14.3753 17.1874C14.3753 17.29 14.3592 17.3917 14.3277 17.4866C14.2963 17.5814 14.2502 17.6676 14.192 17.7401L10.442 22.4276C10.384 22.5003 10.3151 22.5579 10.2392 22.5972C10.1633 22.6365 10.082 22.6567 9.99986 22.6567C9.91772 22.6567 9.8364 22.6365 9.76052 22.5972C9.68465 22.5579 9.61572 22.5003 9.55767 22.4276L5.80767 17.7401C5.6904 17.5935 5.62451 17.3947 5.62451 17.1874C5.62451 16.9801 5.6904 16.7812 5.80767 16.6346C5.92495 16.4881 6.08401 16.4057 6.24986 16.4057C6.41571 16.4057 6.57477 16.4881 6.69205 16.6346L9.99986 20.7704L13.3077 16.6346C13.3657 16.562 13.4346 16.5044 13.5105 16.4651C13.5864 16.4258 13.6677 16.4055 13.7499 16.4055C13.832 16.4055 13.9133 16.4258 13.9892 16.4651C14.0651 16.5044 14.134 16.562 14.192 16.6346ZM6.69205 8.36512L9.99986 4.22937L13.3077 8.36512C13.4249 8.51171 13.584 8.59407 13.7499 8.59407C13.9157 8.59407 14.0748 8.51171 14.192 8.36512C14.3093 8.21852 14.3752 8.0197 14.3752 7.81238C14.3752 7.60507 14.3093 7.40624 14.192 7.25965L10.442 2.57215C10.384 2.49951 10.3151 2.44189 10.2392 2.40257C10.1633 2.36325 10.082 2.34302 9.99986 2.34302C9.91772 2.34302 9.8364 2.36325 9.76052 2.40257C9.68465 2.44189 9.61572 2.49951 9.55767 2.57215L5.80767 7.25965C5.6904 7.40624 5.62451 7.60507 5.62451 7.81238C5.62451 8.0197 5.6904 8.21852 5.80767 8.36512C5.92495 8.51171 6.08401 8.59407 6.24986 8.59407C6.41571 8.59407 6.57477 8.51171 6.69205 8.36512Z" fill="#9D40B1"/>
</g>
</svg>
