<svg width="12" height="12" viewBox="0 0 12 12" fill="none" xmlns="http://www.w3.org/2000/svg">
<path id="Vector" d="M11.389 9.3676L8.22121 6.19984L11.389 3.03209C11.7777 2.64338 11.7777 2.01291 11.389 1.6242L10.685 0.920252C10.2963 0.531542 9.68985 0.803942 9.30114 1.19265L6.10938 4.57781L2.53083 1.19265C2.14212 0.803943 1.92244 0.531542 1.53373 0.920252L0.829782 1.6242C0.441072 2.01291 0.441072 2.64338 0.829782 3.03209L3.99754 6.19984L0.829782 9.3676C0.441071 9.75631 0.441072 10.3868 0.829782 10.7755L1.53373 11.4794C1.92244 11.8681 2.55291 11.8681 2.94162 11.4794L6.10938 8.31168L9.27713 11.4794C9.66584 11.8681 10.2963 11.8681 10.685 11.4794L11.389 10.7755C11.7777 10.3868 11.7777 9.75631 11.389 9.3676Z" fill="#8F8F8F"/>
</svg>
