<svg width="16" height="16" viewBox="0 0 16 16" fill="none" xmlns="http://www.w3.org/2000/svg">
<path id="Vector" d="M15.7652 13.7116L12.6888 10.6357C12.5499 10.4969 12.3617 10.4197 12.1642 10.4197H11.6612C12.5129 9.33069 13.0189 7.96089 13.0189 6.47078C13.0189 2.92596 10.1462 0.0537109 6.60078 0.0537109C3.05536 0.0537109 0.182617 2.92596 0.182617 6.47078C0.182617 10.0156 3.05536 12.8878 6.60078 12.8878C8.09115 12.8878 9.46118 12.3819 10.5504 11.5304V12.0333C10.5504 12.2307 10.6276 12.4189 10.7664 12.5577L13.8428 15.6336C14.1329 15.9236 14.6019 15.9236 14.8888 15.6336L15.7621 14.7605C16.0521 14.4705 16.0521 14.0016 15.7652 13.7116ZM6.60078 10.4197C4.41922 10.4197 2.65114 8.65504 2.65114 6.47078C2.65114 4.28959 4.41613 2.52181 6.60078 2.52181C8.78233 2.52181 10.5504 4.2865 10.5504 6.47078C10.5504 8.65196 8.78542 10.4197 6.60078 10.4197Z" fill="#8F8F8F"/>
</svg>
