<svg width="102" height="13" viewBox="0 0 102 13" fill="none" xmlns="http://www.w3.org/2000/svg">
<g id="Social handles">
<path id="Vector" d="M72.4757 7.3125L72.8906 4.9598H70.2968V3.43307C70.2968 2.78941 70.6591 2.16201 71.8208 2.16201H73V0.158945C73 0.158945 71.9299 0 70.9068 0C68.7707 0 67.3744 1.12684 67.3744 3.16672V4.9598H65V7.3125H67.3744V13H70.2968V7.3125H72.4757Z" fill="white"/>
<path id="Vector_2" d="M15.2526 3.23983C15.2634 3.38201 15.2634 3.52422 15.2634 3.6664C15.2634 8.0031 11.7577 13 5.35027 13C3.37627 13 1.54252 12.4617 0 11.5274C0.280468 11.5578 0.550112 11.568 0.841371 11.568C2.47016 11.568 3.96955 11.05 5.16689 10.1664C3.63516 10.1359 2.35152 9.19141 1.90925 7.8914C2.12501 7.92185 2.34073 7.94217 2.56728 7.94217C2.88008 7.94217 3.19292 7.90153 3.48415 7.83047C1.8877 7.52576 0.690329 6.20546 0.690329 4.61093V4.57032C1.15415 4.81407 1.69353 4.96641 2.26519 4.9867C1.32674 4.39763 0.711911 3.39217 0.711911 2.25466C0.711911 1.6453 0.884468 1.08671 1.18652 0.599204C2.90163 2.58983 5.4797 3.88981 8.37054 4.03202C8.31662 3.78827 8.28425 3.53438 8.28425 3.28047C8.28425 1.47264 9.83756 0 11.7684 0C12.7716 0 13.6776 0.396093 14.3141 1.03594C15.1015 0.893756 15.8566 0.619524 16.5254 0.243752C16.2665 1.00549 15.7164 1.64533 14.9937 2.05155C15.6948 1.98049 16.3744 1.79764 17 1.54376C16.5255 2.19373 15.9321 2.77262 15.2526 3.23983Z" fill="white"/>
<path id="Vector_3" d="M36.9099 13H34.2147V4.32057H36.9099V13ZM35.5609 3.13661C34.699 3.13661 34 2.42276 34 1.56091C34 1.14693 34.1644 0.749905 34.4572 0.457179C34.7499 0.164452 35.1469 0 35.5609 0C35.9748 0 36.3719 0.164452 36.6646 0.457179C36.9573 0.749905 37.1217 1.14693 37.1217 1.56091C37.1217 2.42276 36.4224 3.13661 35.5609 3.13661ZM46.9971 13H44.3077V8.77491C44.3077 7.76796 44.2874 6.47664 42.9065 6.47664C41.5052 6.47664 41.2904 7.57064 41.2904 8.70236V13H38.5982V4.32057H41.1831V5.50452H41.2208C41.5806 4.82259 42.4596 4.10293 43.7709 4.10293C46.4986 4.10293 47 5.89917 47 8.23226V13H46.9971Z" fill="white"/>
<path id="Vector_4" d="M102 7.14032C102 10.5637 99.8158 13 96.5902 13C93.4975 13 91 10.3194 91 7C91 3.68065 93.4975 1 96.5902 1C98.0959 1 99.3627 1.59274 100.339 2.57016L98.8172 4.14032C96.8268 2.07903 93.1256 3.62742 93.1256 7C93.1256 9.09274 94.6832 10.7887 96.5902 10.7887C98.8037 10.7887 99.6332 9.08548 99.7639 8.20242H96.5902V6.13871H101.912C101.964 6.44597 102 6.74113 102 7.14032Z" fill="white"/>
</g>
</svg>
