<svg width="45" height="45" viewBox="0 0 45 45" fill="none" xmlns="http://www.w3.org/2000/svg">
<g id="Group 180">
<rect id="Rectangle 108" width="45" height="45" rx="22.5" fill="#F9F9F9"/>
<path id="Vector" d="M23 31C24.2614 31 25.2846 30.0487 25.2846 28.875H20.7154C20.7154 30.0487 21.7386 31 23 31ZM30.6925 26.0292C30.0025 25.3399 28.7114 24.3029 28.7114 20.9062C28.7114 18.3264 26.7657 16.2611 24.1421 15.7545V15.0625C24.1421 14.4758 23.6307 14 23 14C22.3693 14 21.8579 14.4758 21.8579 15.0625V15.7545C19.2343 16.2611 17.2886 18.3264 17.2886 20.9062C17.2886 24.3029 15.9975 25.3399 15.3075 26.0292C15.0932 26.2433 14.9982 26.4993 15 26.75C15.004 27.2945 15.4636 27.8125 16.1464 27.8125H29.8536C30.5364 27.8125 30.9964 27.2945 31 26.75C31.0018 26.4993 30.9068 26.243 30.6925 26.0292Z" fill="#480078" fill-opacity="0.4"/>
<circle id="Ellipse 23" cx="28.5" cy="17.5" r="2.5" fill="#DB0000"/>
</g>
</svg>
