<svg width="25" height="25" viewBox="0 0 25 25" fill="none" xmlns="http://www.w3.org/2000/svg">
<g id="Group">
<path id="Vector" fill-rule="evenodd" clip-rule="evenodd" d="M5.51059 18.297C4.68048 17.4667 4.21413 16.3408 4.21413 15.1668C4.21413 13.9927 4.68048 12.8668 5.51059 12.0365L12.3231 5.22405C12.5185 5.02873 12.6284 4.76376 12.6285 4.48744C12.6286 4.21111 12.5189 3.94607 12.3236 3.75061C12.1283 3.55515 11.8633 3.44529 11.587 3.44519C11.3107 3.44509 11.0456 3.55477 10.8502 3.75009L4.03767 10.5626C2.81657 11.7834 2.13045 13.4393 2.13025 15.166C2.13006 16.8927 2.8158 18.5488 4.03662 19.7699C5.25745 20.991 6.91335 21.6771 8.64005 21.6773C10.3668 21.6775 12.0228 20.9917 13.2439 19.7709L21.5293 11.4845C22.4086 10.6051 22.9024 9.41249 22.9023 8.16899C22.9022 6.92549 22.4082 5.73296 21.5288 4.85373C20.6495 3.97451 19.4568 3.48063 18.2133 3.48073C16.9698 3.48082 15.7773 3.9749 14.8981 4.85426L6.61371 13.1386C6.08915 13.6789 5.79823 14.4039 5.80383 15.1569C5.80943 15.9099 6.11109 16.6305 6.64363 17.1629C7.17618 17.6953 7.89682 17.9967 8.64983 18.0022C9.40284 18.0076 10.1277 17.7165 10.6679 17.1918L18.2158 9.6428C18.4113 9.44748 18.5211 9.18251 18.5212 8.90619C18.5213 8.62986 18.4116 8.36482 18.2163 8.16936C18.021 7.9739 17.756 7.86404 17.4797 7.86394C17.2034 7.86384 16.9383 7.97352 16.7429 8.16884L9.19392 15.7178C9.04722 15.8646 8.8482 15.9472 8.64064 15.9473C8.43308 15.9474 8.23398 15.865 8.08715 15.7183C7.94031 15.5716 7.85776 15.3726 7.85767 15.165C7.85757 14.9575 7.93993 14.7584 8.08663 14.6115L16.371 6.32717C16.6129 6.08518 16.9 5.8932 17.216 5.76219C17.5321 5.63117 17.8708 5.56369 18.213 5.56359C18.5551 5.5635 18.8939 5.63079 19.21 5.76162C19.5261 5.89246 19.8134 6.08428 20.0554 6.32613C20.5441 6.81457 20.8188 7.47715 20.819 8.1681C20.8192 8.85906 20.5449 9.52179 20.0564 10.0105L11.771 18.2959C10.9408 19.126 9.81482 19.5924 8.64079 19.5924C7.46676 19.5924 6.34081 19.126 5.51059 18.2959V18.297Z" fill="#696969"/>
</g>
</svg>
