<svg width="20" height="20" viewBox="0 0 20 20" fill="none" xmlns="http://www.w3.org/2000/svg">
<path id="Vector" d="M10 0C8.02219 0 6.08879 0.58649 4.4443 1.6853C2.79981 2.78412 1.51809 4.3459 0.761209 6.17316C0.00433284 8.00042 -0.1937 10.0111 0.192152 11.9509C0.578004 13.8907 1.53041 15.6725 2.92894 17.0711C4.32746 18.4696 6.10929 19.422 8.0491 19.8078C9.98891 20.1937 11.9996 19.9957 13.8268 19.2388C15.6541 18.4819 17.2159 17.2002 18.3147 15.5557C19.4135 13.9112 20 11.9778 20 10C19.9972 7.34869 18.9427 4.80678 17.068 2.93202C15.1932 1.05727 12.6513 0.00279983 10 0ZM10 18.4615C8.32647 18.4615 6.69052 17.9653 5.29902 17.0355C3.90753 16.1057 2.823 14.7842 2.18256 13.2381C1.54213 11.6919 1.37456 9.99061 1.70105 8.34923C2.02754 6.70786 2.83343 5.20016 4.01679 4.01679C5.20016 2.83342 6.70786 2.02754 8.34924 1.70105C9.99062 1.37456 11.6919 1.54212 13.2381 2.18256C14.7842 2.82299 16.1057 3.90753 17.0355 5.29902C17.9653 6.69051 18.4615 8.32646 18.4615 10C18.459 12.2434 17.5667 14.3941 15.9804 15.9804C14.3941 17.5667 12.2434 18.459 10 18.4615ZM5.38462 8.07692C5.38462 7.84871 5.45229 7.62563 5.57908 7.43588C5.70586 7.24613 5.88607 7.09824 6.09691 7.01091C6.30774 6.92357 6.53974 6.90072 6.76357 6.94525C6.98739 6.98977 7.19299 7.09966 7.35436 7.26103C7.51573 7.4224 7.62562 7.62799 7.67014 7.85182C7.71466 8.07564 7.69181 8.30764 7.60448 8.51848C7.51715 8.72932 7.36926 8.90952 7.17951 9.03631C6.98976 9.1631 6.76667 9.23077 6.53846 9.23077C6.23245 9.23077 5.93896 9.1092 5.72257 8.89281C5.50618 8.67643 5.38462 8.38294 5.38462 8.07692ZM14.6154 8.07692C14.6154 8.30513 14.5477 8.52821 14.4209 8.71796C14.2941 8.90771 14.1139 9.0556 13.9031 9.14294C13.6923 9.23027 13.4603 9.25312 13.2364 9.2086C13.0126 9.16407 12.807 9.05418 12.6456 8.89281C12.4843 8.73145 12.3744 8.52585 12.3299 8.30203C12.2853 8.0782 12.3082 7.8462 12.3955 7.63536C12.4829 7.42453 12.6307 7.24432 12.8205 7.11753C13.0102 6.99075 13.2333 6.92308 13.4615 6.92308C13.7676 6.92308 14.061 7.04464 14.2774 7.26103C14.4938 7.47742 14.6154 7.7709 14.6154 8.07692ZM14.5125 12.6923C13.5231 14.4029 11.8779 15.3846 10 15.3846C8.12212 15.3846 6.47789 14.4038 5.48846 12.6923C5.43281 12.6048 5.39544 12.5068 5.3786 12.4045C5.36176 12.3021 5.36581 12.1974 5.39049 12.0966C5.41517 11.9959 5.45998 11.9011 5.52222 11.8181C5.58447 11.7351 5.66285 11.6656 5.75267 11.6137C5.84249 11.5617 5.94189 11.5285 6.04487 11.516C6.14786 11.5035 6.25232 11.512 6.35195 11.5409C6.45159 11.5698 6.54435 11.6185 6.62466 11.6842C6.70496 11.7499 6.77114 11.8311 6.81923 11.9231C7.5375 13.1644 8.66635 13.8462 10 13.8462C11.3337 13.8462 12.4625 13.1635 13.1798 11.9231C13.2818 11.7463 13.4498 11.6174 13.6469 11.5645C13.844 11.5117 14.054 11.5393 14.2308 11.6413C14.4075 11.7434 14.5365 11.9114 14.5893 12.1085C14.6421 12.3056 14.6145 12.5156 14.5125 12.6923Z" fill="#696969"/>
</svg>
