<svg width="21" height="21" viewBox="0 0 21 21" fill="none" xmlns="http://www.w3.org/2000/svg">
<g id="Group 335">
<circle id="Ellipse 53" cx="10.5" cy="10.5" r="10.5" fill="#D9D9D9"/>
<path id="Vector" d="M14.5132 12.8051L12.2081 10.5L14.5132 8.19494C14.7961 7.91209 14.7961 7.45331 14.5132 7.17045L14.001 6.65821C13.7181 6.37535 13.2768 6.57357 12.994 6.85643L10.6714 9.31973L8.06736 6.85643C7.78451 6.57357 7.62465 6.37535 7.34179 6.65821L6.82955 7.17045C6.54669 7.45331 6.54669 7.91209 6.82955 8.19494L9.13465 10.5L6.82955 12.8051C6.54669 13.088 6.54669 13.5468 6.82955 13.8296L7.34179 14.3419C7.62465 14.6247 8.08343 14.6247 8.36628 14.3419L10.6714 12.0368L12.9765 14.3419C13.2593 14.6247 13.7181 14.6247 14.001 14.3419L14.5132 13.8296C14.7961 13.5468 14.7961 13.088 14.5132 12.8051Z" fill="#8F8F8F"/>
</g>
</svg>
