<svg width="11" height="10" viewBox="0 0 11 10" fill="none" xmlns="http://www.w3.org/2000/svg">
<path id="Vector" d="M10.0856 5.88514L10.9884 1.82264C11.0536 1.52932 10.8356 1.25 10.5415 1.25H3.04043L2.86539 0.374805C2.82177 0.15666 2.63408 0 2.41635 0H0.458333C0.2052 0 0 0.209863 0 0.46875V0.78125C0 1.04014 0.2052 1.25 0.458333 1.25H1.7929L3.13445 7.95772C2.8135 8.14648 2.59722 8.50043 2.59722 8.90625C2.59722 9.51031 3.07603 10 3.66667 10C4.25731 10 4.73611 9.51031 4.73611 8.90625C4.73611 8.60012 4.61299 8.32353 4.41482 8.125H8.4185C8.22034 8.32353 8.09722 8.60012 8.09722 8.90625C8.09722 9.51031 8.57603 10 9.16667 10C9.75731 10 10.2361 9.51031 10.2361 8.90625C10.2361 8.4732 9.98999 8.09898 9.63304 7.92178L9.7384 7.44764C9.80358 7.15432 9.58559 6.875 9.29147 6.875H4.16543L4.04044 6.25H9.63869C9.8527 6.25 10.0382 6.09855 10.0856 5.88514Z" fill="#C2C2C2"/>
</svg>
