<svg width="20" height="18" viewBox="0 0 20 18" fill="none" xmlns="http://www.w3.org/2000/svg">
<g id="Group 383">
<path id="Vector" d="M6.63619 16.4999C7.0253 16.4999 7.34073 16.1845 7.34073 15.7954C7.34073 15.4063 7.0253 15.0908 6.63619 15.0908C6.24708 15.0908 5.93164 15.4063 5.93164 15.7954C5.93164 16.1845 6.24708 16.4999 6.63619 16.4999Z" stroke="#BB02C3" stroke-width="1.7" stroke-linecap="round" stroke-linejoin="round"/>
<path id="Vector_2" d="M16.5004 16.4999C16.8896 16.4999 17.205 16.1845 17.205 15.7954C17.205 15.4063 16.8896 15.0908 16.5004 15.0908C16.1113 15.0908 15.7959 15.4063 15.7959 15.7954C15.7959 16.1845 16.1113 16.4999 16.5004 16.4999Z" stroke="#BB02C3" stroke-width="1.7" stroke-linecap="round" stroke-linejoin="round"/>
<path id="Vector_3" d="M1 1H3.81819L5.93182 12.9773H17.2046" stroke="#BB02C3" stroke-width="1.7" stroke-linecap="round" stroke-linejoin="round"/>
<path id="Vector_4" d="M5.93155 10.1592H16.9154C16.9969 10.1593 17.0759 10.1311 17.1389 10.0795C17.2019 10.0279 17.2451 9.95598 17.2611 9.87609L18.5293 3.53518C18.5395 3.48405 18.5383 3.43128 18.5256 3.38069C18.513 3.3301 18.4893 3.28295 18.4562 3.24263C18.4232 3.20231 18.3815 3.16984 18.3344 3.14756C18.2873 3.12527 18.2358 3.11373 18.1836 3.11377H4.52246" stroke="#BB02C3" stroke-width="1.7" stroke-linecap="round" stroke-linejoin="round"/>
</g>
</svg>
