<svg width="16" height="13" viewBox="0 0 16 13" fill="none" xmlns="http://www.w3.org/2000/svg">
<path id="Vector" d="M4.74102 9.82251L1.56019 6.64168C1.38879 6.47028 1.15633 6.37399 0.913935 6.37399C0.671545 6.37399 0.439082 6.47028 0.267686 6.64168C0.0962894 6.81307 0 7.04554 0 7.28793C0 7.40795 0.0236398 7.52679 0.0695694 7.63767C0.115499 7.74856 0.182819 7.84931 0.267686 7.93418L4.09935 11.7658C4.45685 12.1233 5.03435 12.1233 5.39185 11.7658L15.0902 2.06751C15.2616 1.89611 15.3579 1.66365 15.3579 1.42126C15.3579 1.17887 15.2616 0.946406 15.0902 0.77501C14.9188 0.603614 14.6863 0.507324 14.4439 0.507324C14.2015 0.507324 13.9691 0.603614 13.7977 0.77501L4.74102 9.82251Z" fill="#3F0065"/>
</svg>
