<svg width="22" height="22" viewBox="0 0 22 22" fill="none" xmlns="http://www.w3.org/2000/svg">
<g id="edit" clip-path="url(#clip0_313_1677)">
<path id="Vector" d="M15.3771 4.40003L18.8222 7.84517C18.9674 7.99031 18.9674 8.22712 18.8222 8.37225L10.4806 16.7139L6.93611 17.1073C6.4625 17.1608 6.06146 16.7598 6.11493 16.2861L6.50833 12.7417L14.85 4.40003C14.9951 4.25489 15.2319 4.25489 15.3771 4.40003ZM21.5646 3.52538L19.7007 1.66149C19.1201 1.08094 18.1767 1.08094 17.5924 1.66149L16.2403 3.01357C16.0951 3.15871 16.0951 3.39552 16.2403 3.54066L19.6854 6.9858C19.8306 7.13093 20.0674 7.13093 20.2125 6.9858L21.5646 5.63371C22.1451 5.04934 22.1451 4.10594 21.5646 3.52538ZM14.6667 14.4452V18.3334H2.44444V6.11114H11.2215C11.3437 6.11114 11.4583 6.06149 11.5462 5.97746L13.074 4.44969C13.3642 4.15941 13.158 3.6667 12.7493 3.6667H1.83333C0.821181 3.6667 0 4.48788 0 5.50003V18.9445C0 19.9566 0.821181 20.7778 1.83333 20.7778H15.2778C16.2899 20.7778 17.1111 19.9566 17.1111 18.9445V12.9174C17.1111 12.5087 16.6184 12.3063 16.3281 12.5927L14.8003 14.1205C14.7163 14.2084 14.6667 14.3229 14.6667 14.4452Z" fill="#C5C5C5"/>
</g>
<defs>
<clipPath id="clip0_313_1677">
<rect width="22" height="22" fill="white"/>
</clipPath>
</defs>
</svg>
