<svg width="21" height="21" viewBox="0 0 21 21" fill="none" xmlns="http://www.w3.org/2000/svg">
<path id="Vector" d="M17.0001 0.203657L2.1509 5.15341C1.56577 5.34964 1.0554 5.72156 0.689372 6.21846C0.323345 6.71536 0.119475 7.31306 0.105557 7.93006C0.0916399 8.54706 0.268353 9.15335 0.611602 9.66624C0.954852 10.1791 1.44793 10.5737 2.02362 10.7961L7.51784 12.8962C7.64815 12.9495 7.76654 13.0282 7.86609 13.1278C7.96565 13.2274 8.04437 13.3457 8.09767 13.4761L10.1978 18.9703C10.377 19.437 10.6699 19.8515 11.0501 20.1762C11.4302 20.5008 11.8855 20.7254 12.3745 20.8293C12.8634 20.9333 13.3707 20.9135 13.85 20.7716C14.3294 20.6296 14.7657 20.3702 15.1192 20.0168C15.447 19.6824 15.6959 19.2789 15.8476 18.8359L20.7973 3.98668C20.9718 3.45889 20.9962 2.89299 20.8679 2.35212C20.7395 1.81126 20.4633 1.3167 20.0703 0.923623C19.6772 0.530548 19.1826 0.254418 18.6418 0.12604C18.1009 -0.0023391 17.535 0.0220848 17.0072 0.196586L17.0001 0.203657ZM18.8952 3.35735L13.9454 18.2066C13.8779 18.399 13.7531 18.5662 13.5878 18.6856C13.4225 18.8051 13.2247 18.8712 13.0208 18.8751C12.8169 18.8789 12.6167 18.8203 12.4471 18.7072C12.2774 18.594 12.1464 18.4317 12.0716 18.242L9.96443 12.7548C9.9356 12.6822 9.90255 12.6114 9.86544 12.5427L14.7374 7.67071C14.9249 7.48317 15.0303 7.22882 15.0303 6.9636C15.0303 6.69838 14.9249 6.44403 14.7374 6.25649C14.5499 6.06896 14.2955 5.9636 14.0303 5.9636C13.7651 5.9636 13.5107 6.06896 13.3232 6.25649L8.45122 11.1285C8.38251 11.0913 8.31167 11.0583 8.23909 11.0295L2.75194 8.92228C2.56222 8.8475 2.39989 8.71649 2.28674 8.54684C2.17358 8.37718 2.11499 8.17698 2.11884 7.97309C2.12269 7.76919 2.18878 7.57135 2.30826 7.40608C2.42774 7.24082 2.59489 7.11603 2.7873 7.04845L17.6365 2.0987C17.8117 2.04222 17.9991 2.03517 18.178 2.07833C18.3569 2.12149 18.5204 2.21319 18.6506 2.34334C18.7807 2.47348 18.8724 2.63701 18.9156 2.81592C18.9587 2.99484 18.9517 3.18219 18.8952 3.35735Z" fill="#BB02C3"/>
</svg>
