<svg width="61" height="11" viewBox="0 0 61 11" fill="none" xmlns="http://www.w3.org/2000/svg">
<g id="Group 268">
<g id="Group 267">
<path id="Vector" d="M5.2677 9.2136L7.76657 10.725C8.2242 11.002 8.78418 10.5925 8.66376 10.0747L8.00141 7.23257L10.2112 5.31777C10.6147 4.96853 10.3979 4.30618 9.86803 4.26403L6.95971 4.01715L5.82167 1.33162C5.61694 0.843887 4.91846 0.843887 4.71373 1.33162L3.57569 4.01113L0.667369 4.25801C0.137488 4.30016 -0.0792818 4.96251 0.32415 5.31175L2.534 7.22655L1.87164 10.0686C1.75122 10.5865 2.3112 10.9959 2.76883 10.7189L5.2677 9.2136Z" fill="#E4A951"/>
<path id="Vector_2" d="M17.9122 9.21336L20.4111 10.7247C20.8687 11.0017 21.4287 10.5923 21.3083 10.0744L20.6459 7.23232L22.8558 5.31753C23.2592 4.96829 23.0424 4.30594 22.5126 4.26379L19.6042 4.01691L18.4662 1.33137C18.2615 0.843643 17.563 0.843643 17.3583 1.33137L16.2202 4.01089L13.3119 4.25776C12.782 4.29991 12.5652 4.96227 12.9687 5.3115L15.1785 7.2263L14.5162 10.0684C14.3957 10.5862 14.9557 10.9957 15.4134 10.7187L17.9122 9.21336Z" fill="#E4A951"/>
<path id="Vector_3" d="M30.5577 9.21336L33.0566 10.7247C33.5142 11.0017 34.0742 10.5923 33.9538 10.0744L33.2914 7.23232L35.5013 5.31753C35.9047 4.96829 35.688 4.30594 35.1581 4.26379L32.2497 4.01691L31.1117 1.33137C30.907 0.843643 30.2085 0.843643 30.0038 1.33137L28.8657 4.01089L25.9574 4.25776C25.4275 4.29991 25.2108 4.96227 25.6142 5.3115L27.824 7.2263L27.1617 10.0684C27.0413 10.5862 27.6012 10.9957 28.0589 10.7187L30.5577 9.21336Z" fill="#E4A951"/>
<path id="Vector_4" d="M43.2023 9.21336L45.7011 10.7247C46.1588 11.0017 46.7188 10.5923 46.5983 10.0744L45.936 7.23232L48.1458 5.31753C48.5493 4.96829 48.3325 4.30594 47.8026 4.26379L44.8943 4.01691L43.7562 1.33137C43.5515 0.843643 42.853 0.843643 42.6483 1.33137L41.5103 4.01089L38.6019 4.25776C38.0721 4.29991 37.8553 4.96227 38.2587 5.3115L40.4686 7.2263L39.8062 10.0684C39.6858 10.5862 40.2458 10.9957 40.7034 10.7187L43.2023 9.21336Z" fill="#E4A951"/>
<path id="Vector_5" d="M55.8468 9.21336L58.3457 10.7247C58.8033 11.0017 59.3633 10.5923 59.2429 10.0744L58.5805 7.23232L60.7904 5.31753C61.1938 4.96829 60.977 4.30594 60.4471 4.26379L57.5388 4.01691L56.4008 1.33137C56.196 0.843643 55.4976 0.843643 55.2928 1.33137L54.1548 4.01089L51.2465 4.25776C50.7166 4.29991 50.4998 4.96227 50.9033 5.3115L53.1131 7.2263L52.4507 10.0684C52.3303 10.5862 52.8903 10.9957 53.3479 10.7187L55.8468 9.21336Z" fill="#D9D9D9"/>
</g>
</g>
</svg>
