<svg width="9" height="9" viewBox="0 0 9 9" fill="none" xmlns="http://www.w3.org/2000/svg">
<path id="Vector" d="M4.5 0.000244141C2.0115 0.000244141 0 2.02524 0 4.50024C0 5.69372 0.474106 6.83831 1.31802 7.68222C1.73588 8.10009 2.23196 8.43156 2.77792 8.6577C3.32389 8.88385 3.90905 9.00024 4.5 9.00024C5.69347 9.00024 6.83807 8.52614 7.68198 7.68222C8.52589 6.83831 9 5.69372 9 4.50024C9 3.9093 8.8836 3.32413 8.65746 2.77817C8.43131 2.2322 8.09984 1.73613 7.68198 1.31826C7.26412 0.9004 6.76804 0.568932 6.22208 0.342786C5.67611 0.11664 5.09095 0.000244141 4.5 0.000244141ZM6.075 2.70024C6.25402 2.70024 6.42571 2.77136 6.5523 2.89795C6.67888 3.02453 6.75 3.19622 6.75 3.37524C6.75 3.55427 6.67888 3.72595 6.5523 3.85254C6.42571 3.97913 6.25402 4.05024 6.075 4.05024C5.89598 4.05024 5.72429 3.97913 5.5977 3.85254C5.47112 3.72595 5.4 3.55427 5.4 3.37524C5.4 3.19622 5.47112 3.02453 5.5977 2.89795C5.72429 2.77136 5.89598 2.70024 6.075 2.70024ZM2.925 2.70024C3.10402 2.70024 3.27571 2.77136 3.4023 2.89795C3.52888 3.02453 3.6 3.19622 3.6 3.37524C3.6 3.55427 3.52888 3.72595 3.4023 3.85254C3.27571 3.97913 3.10402 4.05024 2.925 4.05024C2.74598 4.05024 2.57429 3.97913 2.4477 3.85254C2.32112 3.72595 2.25 3.55427 2.25 3.37524C2.25 3.19622 2.32112 3.02453 2.4477 2.89795C2.57429 2.77136 2.74598 2.70024 2.925 2.70024ZM4.5 6.97524C3.4515 6.97524 2.5605 6.31824 2.2005 5.40024H6.7995C6.435 6.31824 5.5485 6.97524 4.5 6.97524Z" fill="#328B13"/>
</svg>
