<svg width="8" height="8" viewBox="0 0 8 8" fill="none" xmlns="http://www.w3.org/2000/svg">
<path id="Vector" d="M4 7.00024C3.40666 7.00024 2.82664 6.8243 2.33329 6.49465C1.83994 6.16501 1.45543 5.69647 1.22836 5.14829C1.0013 4.60012 0.94189 3.99692 1.05765 3.41497C1.1734 2.83303 1.45912 2.29848 1.87868 1.87892C2.29824 1.45937 2.83279 1.17365 3.41473 1.05789C3.99667 0.942134 4.59987 1.00154 5.14805 1.22861C5.69623 1.45567 6.16476 1.84019 6.49441 2.33353C6.82405 2.82688 7 3.4069 7 4.00024C7 4.49624 6.88 4.96391 6.66667 5.37591L7 7.00024L5.37567 6.66691C4.96367 6.88024 4.49567 7.00024 4 7.00024Z" stroke="#9D40B1" stroke-linecap="round" stroke-linejoin="round"/>
</svg>
