<svg width="55" height="19" viewBox="0 0 55 19" fill="none" xmlns="http://www.w3.org/2000/svg">
<g id="Group 320">
<path id="Vector" d="M16.7688 16.6976L13.4582 13.3876C13.3088 13.2382 13.1062 13.1552 12.8937 13.1552H12.3525C13.2689 11.9832 13.8135 10.5091 13.8135 8.90558C13.8135 5.09091 10.7221 2 6.90676 2C3.09144 2 0 5.09091 0 8.90558C0 12.7202 3.09144 15.8112 6.90676 15.8112C8.51058 15.8112 9.98491 15.2667 11.1571 14.3504V14.8915C11.1571 15.104 11.2401 15.3065 11.3895 15.4559L14.7001 18.7659C15.0122 19.078 15.517 19.078 15.8258 18.7659L16.7655 17.8264C17.0776 17.5143 17.0776 17.0097 16.7688 16.6976ZM6.90676 13.1552C4.55912 13.1552 2.65644 11.2561 2.65644 8.90558C2.65644 6.55834 4.5558 4.65599 6.90676 4.65599C9.25439 4.65599 11.1571 6.55502 11.1571 8.90558C11.1571 11.2528 9.25771 13.1552 6.90676 13.1552Z" fill="#8F8F8F"/>
<path id="Vector_2" d="M54.7701 11.7831L53.1552 10.8407C53.3182 9.95201 53.3182 9.04032 53.1552 8.15162L54.7701 7.20928C54.9558 7.10203 55.0392 6.87985 54.9786 6.67299C54.5578 5.30929 53.8413 4.07583 52.905 3.04922C52.7609 2.89216 52.5259 2.85386 52.3439 2.96111L50.729 3.90345C50.0504 3.31353 49.2695 2.85769 48.4241 2.5589V0.678057C48.4241 0.463542 48.2763 0.275841 48.0678 0.229874C46.6765 -0.084238 45.2511 -0.0689154 43.9281 0.229874C43.7196 0.275841 43.5718 0.463542 43.5718 0.678057V2.56273C42.7302 2.86535 41.9493 3.32119 41.2669 3.90728L39.6558 2.96494C39.47 2.85769 39.2388 2.89216 39.0947 3.05305C38.1584 4.07583 37.4419 5.30929 37.0211 6.67683C36.9566 6.88368 37.0438 7.10586 37.2296 7.21311L38.8445 8.15545C38.6815 9.04416 38.6815 9.95585 38.8445 10.8446L37.2296 11.7869C37.0438 11.8941 36.9604 12.1163 37.0211 12.3232C37.4419 13.6869 38.1584 14.9203 39.0947 15.947C39.2388 16.104 39.4738 16.1423 39.6558 16.0351L41.2707 15.0927C41.9493 15.6826 42.7302 16.1385 43.5756 16.4373V18.3219C43.5756 18.5365 43.7234 18.7242 43.9319 18.7701C45.3232 19.0842 46.7485 19.0689 48.0716 18.7701C48.2801 18.7242 48.4279 18.5365 48.4279 18.3219V16.4373C49.2695 16.1347 50.0504 15.6788 50.7328 15.0927L52.3477 16.0351C52.5335 16.1423 52.7647 16.1078 52.9088 15.947C53.8451 14.9242 54.5616 13.6907 54.9824 12.3232C55.0392 12.1125 54.9558 11.8903 54.7701 11.7831ZM45.9979 12.5607C44.3262 12.5607 42.9652 11.1855 42.9652 9.49617C42.9652 7.80686 44.3262 6.43166 45.9979 6.43166C47.6697 6.43166 49.0307 7.80686 49.0307 9.49617C49.0307 11.1855 47.6697 12.5607 45.9979 12.5607Z" fill="#ABABAB"/>
</g>
</svg>
