<svg width="168" height="42" viewBox="0 0 168 42" fill="none" xmlns="http://www.w3.org/2000/svg">
<g id="Group 203">
<circle id="Ellipse 24" cx="147" cy="21" r="21" fill="#029E6F" fill-opacity="0.26"/>
<g id="Vector" filter="url(#filter0_d_313_1455)">
<path d="M149.264 20.6613L145.513 19.4887C145.079 19.3551 144.777 18.9209 144.777 18.4385C144.777 17.8336 145.236 17.3438 145.802 17.3438H148.104C148.528 17.3438 148.945 17.4811 149.292 17.7334C149.504 17.8855 149.789 17.8484 149.969 17.6592L151.178 16.3975C151.424 16.1414 151.39 15.7146 151.115 15.4883C150.264 14.7758 149.202 14.3787 148.111 14.375V12.5938C148.111 12.2672 147.861 12 147.555 12H146.444C146.139 12 145.888 12.2672 145.888 12.5938V14.375H145.802C143.589 14.375 141.811 16.4049 142.016 18.8133C142.162 20.524 143.384 21.9156 144.926 22.398L148.486 23.5113C148.92 23.6486 149.223 24.0791 149.223 24.5615C149.223 25.1664 148.764 25.6562 148.198 25.6562H145.895C145.472 25.6562 145.055 25.5189 144.708 25.2666C144.496 25.1145 144.211 25.1516 144.03 25.3408L142.822 26.6025C142.575 26.8586 142.61 27.2854 142.884 27.5117C143.735 28.2242 144.798 28.6213 145.888 28.625V30.4062C145.888 30.7328 146.139 31 146.444 31H147.555C147.861 31 148.111 30.7328 148.111 30.4062V28.6176C149.73 28.5842 151.247 27.5563 151.782 25.9197C152.529 23.6338 151.275 21.2885 149.264 20.6613Z" fill="#029E6F"/>
</g>
<path id="Vector_2" d="M5.81135 25.382L2.8107 24.518C2.46341 24.4195 2.22169 24.0996 2.22169 23.7441C2.22169 23.2984 2.58843 22.9375 3.04131 22.9375H4.88337C5.22233 22.9375 5.55574 23.0387 5.83357 23.2246C6.00306 23.3367 6.23088 23.3094 6.37536 23.1699L7.34223 22.2402C7.5395 22.0516 7.51171 21.7371 7.29222 21.5703C6.61152 21.0453 5.76134 20.7527 4.88893 20.75V19.4375C4.88893 19.1969 4.68888 19 4.44439 19H3.55531C3.31081 19 3.11077 19.1969 3.11077 19.4375V20.75H3.04131C1.27148 20.75 -0.151044 22.2457 0.0128797 24.0203C0.129571 25.2809 1.10756 26.3063 2.34116 26.6617L5.18899 27.482C5.53629 27.5832 5.77801 27.9004 5.77801 28.2559C5.77801 28.7016 5.41126 29.0625 4.95839 29.0625H3.11632C2.77736 29.0625 2.44396 28.9613 2.16612 28.7754C1.99664 28.6633 1.76881 28.6906 1.62434 28.8301L0.657463 29.7598C0.460198 29.9484 0.487982 30.2629 0.707473 30.4297C1.38818 30.9547 2.23836 31.2473 3.11077 31.25V32.5625C3.11077 32.8031 3.31081 33 3.55531 33H4.44439C4.68888 33 4.88893 32.8031 4.88893 32.5625V31.2445C6.18365 31.2199 7.3978 30.4625 7.82567 29.2566C8.42302 27.5723 7.42003 25.8441 5.81135 25.382Z" fill="#029E6F"/>
</g>
<defs>
<filter id="filter0_d_313_1455" x="138" y="10" width="18" height="27" filterUnits="userSpaceOnUse" color-interpolation-filters="sRGB">
<feFlood flood-opacity="0" result="BackgroundImageFix"/>
<feColorMatrix in="SourceAlpha" type="matrix" values="0 0 0 0 0 0 0 0 0 0 0 0 0 0 0 0 0 0 127 0" result="hardAlpha"/>
<feOffset dy="2"/>
<feGaussianBlur stdDeviation="2"/>
<feComposite in2="hardAlpha" operator="out"/>
<feColorMatrix type="matrix" values="0 0 0 0 0 0 0 0 0 0.666667 0 0 0 0 0.186667 0 0 0 0.25 0"/>
<feBlend mode="normal" in2="BackgroundImageFix" result="effect1_dropShadow_313_1455"/>
<feBlend mode="normal" in="SourceGraphic" in2="effect1_dropShadow_313_1455" result="shape"/>
</filter>
</defs>
</svg>
